#tb 0: 1/1000
0,          0,          0,        0,  3932160, 0x109148ee
0,         29,         29,        0,  3932160, 0xa87b7bff
0,        129,        129,        0,  3932160, 0x00e14d16
0,        239,        239,        0,  3932160, 0xbf8d7871
0,        240,        240,        0,  3932160, 0x998ded98
0,        339,        339,        0,  3932160, 0x9fcfeaaa
0,        439,        439,        0,  3932160, 0xe0d1328f
0,        440,        440,        0,  3932160, 0xde7e69a0
0,        539,        539,        0,  3932160, 0xdbec5d90
0,        540,        540,        0,  3932160, 0x5355cde3
0,        649,        649,        0,  3932160, 0x4b3c6b11
0,        739,        739,        0,  3932160, 0xcf5692b1
0,        740,        740,        0,  3932160, 0x19d8366f
0,        949,        949,        0,  3932160, 0xf80f3663
0,       1439,       1439,        0,  3932160, 0xe2dc1cc7
0,       3049,       3049,        0,  3932160, 0x3ae51cc7
0,       3050,       3050,        0,  3932160, 0x10ecd14c
0,       3149,       3149,        0,  3932160, 0xda0f1d1f
0,       3150,       3150,        0,  3932160, 0x50bd3602
0,       3449,       3449,        0,  3932160, 0xad2083ba
0,       3450,       3450,        0,  3932160, 0xa5b388bd
0,       3549,       3549,        0,  3932160, 0x37ae6d4f
0,       3550,       3550,        0,  3932160, 0x436ee825
0,       3749,       3749,        0,  3932160, 0x6c2ec178
0,       3849,       3849,        0,  3932160, 0x6c3f389b
0,       3850,       3850,        0,  3932160, 0x3c0421c1
0,       3949,       3949,        0,  3932160, 0x861b0449
0,       4049,       4049,        0,  3932160, 0x41640723
